<svg xmlns="http://www.w3.org/2000/svg" width="1em" height="1em" viewBox="0 0 24 24"><path fill="currentColor" fill-rule="evenodd" d="M17.406 1.25h.761c.872 0 1.6 0 2.18.078c.61.082 1.166.262 1.613.708c.448.446.63 1.001.712 1.612c.078.578.078 1.304.078 2.173v.76c0 1.05 0 1.787-.28 2.461c-.28.674-.802 1.195-1.547 1.937l-.1.1l-2.67 2.662l.093.143c.394.608.713 1.1.943 1.525c.238.44.408.853.476 1.31a4.1 4.1 0 0 1-.28 2.18c-.107.258-.292.527-.482.772c-.2.258-.444.538-.706.823a57.5 57.5 0 0 1-1.702 1.746l-.091.09c-.72.718-1.968.486-2.352-.477c-.227-.572-.32-.8-.435-1.01a4.092 4.092 0 0 0-.367-.555c-.146-.187-.316-.36-.74-.781l-.505-.443a.753.753 0 0 1-.02-.019a2.217 2.217 0 0 1-.285.018c-.632 0-1.153-.263-1.644-.637c-.464-.353-.98-.867-1.596-1.481l-1.447-1.443c-.616-.614-1.131-1.128-1.486-1.591c-.374-.49-.64-1.01-.64-1.642c0-.114.01-.226.026-.337l-.83-.827a4.105 4.105 0 0 0-1.496-.981l-.379-.15a1.514 1.514 0 0 1-.513-2.482l.007-.007a59.234 59.234 0 0 1 1.751-1.697c.287-.261.568-.504.825-.703c.247-.19.517-.375.774-.481a4.13 4.13 0 0 1 2.184-.278c.457.067.87.236 1.311.474c.426.23.92.547 1.53.94l.148.095l2.672-2.665l.1-.099c.744-.743 1.266-1.264 1.942-1.543c.675-.279 1.413-.278 2.467-.278ZM9.137 6.919c-.56-.36-.963-.616-1.301-.799c-.36-.193-.6-.278-.82-.31a2.63 2.63 0 0 0-1.39.179a2.379 2.379 0 0 0-.432.284c-.212.163-.459.376-.73.623a56.607 56.607 0 0 0-1.71 1.658l-.004.006v.007l.003.008l.008.004l.383.152l.128.051a5.607 5.607 0 0 1 1.768 1.16c.028.026.055.053.098.097l.478.476c.065-.081.134-.162.204-.242c.322-.368.735-.78 1.214-1.257l2.103-2.097Zm4.317 11.42l.081.071l.052.052c.39.39.633.63.844.9a5.7 5.7 0 0 1 .501.76c.16.291.284.598.477 1.083l.02-.02a56.57 56.57 0 0 0 1.663-1.705c.248-.27.462-.517.625-.728a2.32 2.32 0 0 0 .285-.43a2.6 2.6 0 0 0 .179-1.383c-.032-.218-.117-.457-.31-.815c-.184-.338-.441-.74-.804-1.3l-2.109 2.102c-.49.488-.912.909-1.287 1.233a7.503 7.503 0 0 1-.217.18ZM17.547 2.75c-1.252 0-1.67.013-2.036.164c-.365.151-.67.436-1.555 1.319l-5.847 5.829c-.498.497-.876.874-1.16 1.2c-.287.325-.433.549-.504.725a.732.732 0 0 0-.058.282c0 .17.059.374.332.73c.285.374.728.817 1.39 1.478l.157.156l1.53-1.526a.75.75 0 0 1 1.06 1.063l-1.527 1.522l.153.154c.663.66 1.107 1.101 1.482 1.386c.358.272.563.331.736.331a.73.73 0 0 0 .26-.048c.175-.064.398-.204.73-.49c.33-.286.716-.67 1.227-1.18l5.847-5.828c.885-.883 1.17-1.186 1.321-1.55c.151-.364.165-.778.165-2.027v-.567c0-.934-.002-1.56-.065-2.025c-.06-.443-.162-.629-.284-.75c-.121-.121-.308-.224-.754-.284c-.468-.062-1.095-.064-2.032-.064h-.568Zm-.884 4.574a1.196 1.196 0 0 0-1.687 0a1.182 1.182 0 0 0 0 1.676a1.196 1.196 0 0 0 1.687 0a1.182 1.182 0 0 0 0-1.676ZM13.917 6.26a2.696 2.696 0 0 1 3.806 0a2.682 2.682 0 0 1 0 3.801a2.696 2.696 0 0 1-3.806 0a2.682 2.682 0 0 1 0-3.8Z" clip-rule="evenodd"/></svg>