<svg xmlns="http://www.w3.org/2000/svg" version="1.0" width="492.000000pt" height="507.000000pt" viewBox="0 0 492.000000 507.000000" preserveAspectRatio="xMidYMid meet">

<g transform="translate(0.000000,507.000000) scale(0.100000,-0.100000)" fill="currentColor" stroke="none">
<path d="M2195 4979 c-189 -28 -397 -79 -529 -130 -27 -10 -53 -19 -58 -19 -17 0 -179 -77 -293 -139 -55 -31 -193 -119 -205 -131 -3 -3 -18 -14 -35 -25 -94 -59 -314 -263 -420 -389 -22 -26 -47 -56 -56 -66 -10 -10 -49 -65 -88 -121 -39 -57 -74 -109 -78 -114 -26 -34 -126 -236 -183 -370 -10 -23 -45 -122 -64 -180 -15 -45 -47 -188 -70 -310 -48 -254 -48 -539 0 -790 40 -207 81 -359 115 -427 5 -10 9 -25 9 -33 0 -8 4 -23 9 -33 5 -9 21 -44 36 -77 54 -119 128 -258 151 -286 8 -8 14 -21 14 -27 0 -7 5 -12 10 -12 6 0 10 -5 10 -11 0 -10 83 -135 99 -149 3 -3 24 -27 46 -55 56 -71 248 -272 301 -315 35 -28 160 -125 185 -142 57 -41 129 -88 134 -88 2 0 28 -15 57 -33 48 -30 183 -98 233 -117 22 -9 89 -37 120 -50 43 -19 222 -73 295 -89 43 -9 75 -15 240 -42 98 -16 512 -17 605 0 254 44 264 46 385 81 148 44 361 133 473 200 30 18 50 29 107 61 56 32 170 112 170 120 0 5 6 9 14 9 8 0 16 3 18 8 2 4 26 25 53 47 28 22 66 56 86 75 20 19 49 47 65 61 36 32 171 181 192 211 9 13 25 32 35 43 10 11 26 32 35 48 9 15 20 27 24 27 4 0 8 5 8 11 0 6 6 17 13 24 23 27 33 40 40 55 4 8 18 33 32 55 14 22 33 56 42 75 10 19 20 37 23 40 22 21 132 282 166 395 13 44 29 96 36 115 18 54 43 187 58 310 23 185 30 309 24 385 -16 211 -55 472 -82 550 -6 17 -25 75 -42 130 -60 187 -198 477 -268 560 -4 6 -17 25 -27 43 -11 17 -23 32 -26 32 -4 0 -10 8 -13 18 -4 10 -14 27 -24 38 -9 10 -35 42 -57 69 -61 77 -239 265 -250 265 -2 0 -23 18 -47 41 -24 22 -55 48 -70 57 -16 9 -28 19 -28 23 0 7 -203 145 -265 180 -37 20 -149 77 -268 135 -27 13 -55 24 -63 24 -8 0 -22 4 -32 10 -72 39 -376 114 -567 140 -94 12 -473 11 -560 -1z m574 -319 c102 -17 199 -38 356 -80 17 -4 52 -17 78 -29 27 -11 53 -21 59 -21 17 0 238 -110 296 -146 29 -19 54 -34 57 -34 6 0 138 -93 150 -105 6 -6 26 -23 45 -37 19 -14 53 -43 75 -63 110 -102 135 -126 135 -131 0 -3 13 -19 30 -34 16 -15 30 -33 30 -39 0 -6 4 -11 9 -11 15 0 201 -259 201 -280 0 -4 3 -10 8 -12 10 -4 103 -190 135 -269 40 -103 74 -211 96 -309 5 -25 15 -67 21 -95 17 -72 39 -287 39 -380 0 -91 -21 -303 -39 -385 -41 -190 -77 -311 -121 -407 -10 -24 -19 -45 -19 -48 0 -13 -96 -201 -110 -215 -3 -3 -12 -18 -20 -35 -8 -16 -21 -36 -27 -43 -7 -7 -13 -17 -13 -21 0 -4 -8 -16 -18 -27 -9 -10 -25 -32 -35 -47 -10 -16 -24 -36 -32 -45 -95 -117 -131 -158 -195 -221 -41 -40 -95 -90 -120 -110 -25 -20 -46 -39 -48 -43 -2 -5 -10 -8 -17 -8 -7 0 -15 -4 -17 -8 -5 -13 -134 -103 -208 -146 -36 -20 -72 -41 -80 -46 -22 -14 -165 -80 -173 -80 -4 0 -26 -8 -50 -19 -23 -10 -62 -24 -87 -31 -25 -7 -71 -22 -104 -32 -136 -44 -382 -78 -563 -78 -155 0 -375 27 -503 61 -78 22 -206 62 -222 70 -10 5 -22 9 -28 9 -11 0 -196 84 -220 100 -8 6 -31 18 -50 28 -19 9 -36 20 -38 25 -2 4 -8 7 -14 7 -6 0 -32 16 -58 35 -26 19 -53 35 -59 35 -6 0 -11 3 -11 8 0 4 -17 18 -37 32 -20 14 -41 30 -47 35 -6 6 -34 28 -61 50 -67 53 -228 217 -279 284 -125 164 -170 236 -244 386 -64 130 -102 222 -122 295 -7 25 -16 56 -21 70 -4 14 -15 61 -24 104 -9 44 -18 83 -21 87 -11 18 -34 270 -34 374 0 114 19 304 40 390 59 253 54 235 130 430 19 47 86 180 97 193 7 7 13 18 13 23 0 6 12 29 28 52 15 23 32 49 37 58 34 55 69 105 75 109 4 3 25 28 45 55 46 59 79 96 163 178 113 110 168 156 292 242 88 61 381 215 410 215 9 0 20 3 24 7 23 24 255 86 451 121 71 13 485 14 564 2z"/>
<path d="M2707 4405 c-36 -18 -55 -38 -66 -67 -4 -13 -6 -610 -3 -1347 l5 -1323 42 -42 c23 -22 51 -48 61 -56 90 -71 123 -99 149 -123 16 -15 49 -34 72 -43 37 -14 47 -15 75 -3 18 7 43 24 56 38 l23 26 -3 1320 c-4 1244 -5 1322 -22 1357 -10 20 -27 43 -39 51 -12 8 -37 28 -55 45 -19 17 -48 41 -65 54 -17 13 -37 30 -46 39 -38 38 -114 89 -134 89 -12 0 -34 -7 -50 -15z"/>
<path d="M1103 3694 c-67 -33 -65 -16 -55 -817 11 -801 4 -733 85 -805 23 -20 55 -49 70 -64 16 -16 31 -28 34 -28 3 0 18 -13 33 -30 15 -16 32 -30 37 -30 4 0 14 -9 20 -19 7 -10 32 -27 57 -36 44 -17 46 -17 88 4 75 36 72 -6 64 810 -4 440 -11 738 -17 758 -6 18 -30 48 -57 69 -26 21 -49 41 -52 44 -20 21 -165 134 -187 145 -36 19 -80 19 -120 -1z"/>
<path d="M1895 3674 l-30 -26 -3 -986 c-2 -543 0 -1151 4 -1352 l6 -365 37 -35 c55 -52 101 -92 151 -130 25 -18 50 -38 55 -45 69 -76 180 -73 222 8 13 27 14 165 9 1326 -5 885 -10 1310 -18 1339 -12 47 -27 63 -137 150 -18 15 -43 35 -55 46 -83 72 -124 96 -167 96 -33 0 -52 -7 -74 -26z"/>
<path d="M3475 3199 l-35 -31 2 -752 3 -751 24 -35 c13 -19 48 -53 77 -74 30 -22 54 -43 54 -48 0 -4 7 -8 15 -8 8 0 15 -4 15 -8 0 -4 12 -15 28 -24 15 -9 36 -25 47 -36 80 -75 173 -72 212 6 21 44 21 -19 9 851 l-9 664 -41 41 c-48 48 -102 96 -171 151 -28 22 -56 46 -64 53 -44 42 -118 43 -166 1z"/>
</g>
</svg>