<svg xmlns="http://www.w3.org/2000/svg" version="1.1" xmlns:xlink="http://www.w3.org/1999/xlink" xmlns:svgjs="http://svgjs.com/svgjs" width="1em" height="1em"><svg xmlns="http://www.w3.org/2000/svg" width="1em" height="1em" viewBox="0 0 24 24"><path fill="currentColor" d="M9.19 6.35c-2.04 2.29-3.44 5.58-3.57 5.89l-2.26-.97c-.65-.28-.81-1.13-.31-1.63l3.01-3.01c.47-.47 1.15-.68 1.81-.55l1.32.27zm1.49 10.16c.3.3.74.38 1.12.2c1.16-.54 3.65-1.81 5.26-3.42c4.59-4.59 4.63-8.33 4.36-9.93a.979.979 0 0 0-.79-.79c-1.6-.27-5.34-.23-9.93 4.36c-1.61 1.61-2.87 4.1-3.42 5.26c-.18.38-.09.83.2 1.12l3.2 3.2zm6.97-1.7c-2.29 2.04-5.58 3.44-5.89 3.57l.97 2.26c.28.65 1.13.81 1.63.31l3.01-3.01c.47-.47.68-1.15.55-1.81l-.27-1.32zm-8.71 2.6a3 3 0 0 1-.82 2.71c-.77.77-3.16 1.34-4.71 1.64c-.69.13-1.3-.48-1.17-1.17c.3-1.55.86-3.94 1.64-4.71a3 3 0 0 1 2.71-.82c1.17.22 2.13 1.18 2.35 2.35zM13 9c0-1.1.9-2 2-2s2 .9 2 2s-.9 2-2 2s-2-.9-2-2z"></path></svg><style>@media (prefers-color-scheme: light) { :root { filter: none; } }
@media (prefers-color-scheme: dark) { :root { filter: invert(100%); } }
</style></svg>