<svg width="280" height="140" viewBox="0 0 280 140" fill="none" xmlns="http://www.w3.org/2000/svg">
<rect width="280" height="140" fill="white"/>
<rect width="280" height="140" fill="#F9FAFB"/>
<mask id="mask0" mask-type="alpha" maskUnits="userSpaceOnUse" x="0" y="0" width="280" height="140">
<rect width="280" height="140" fill="#F4F5F7"/>
</mask>
<g mask="url(#mask0)">
<g filter="url(#filter0_d)">
<rect width="280" height="83" fill="white"/>
<rect x="-0.5" y="-0.5" width="281" height="84" stroke="black" stroke-opacity="0.04"/>
</g>
<rect x="114" y="111" width="8" height="8" rx="3" fill="#D2D6DC"/>
<rect x="62" y="111" width="8" height="8" rx="3" fill="#D2D6DC"/>
<rect x="114" y="123" width="36" height="2" rx="1" fill="#9FA6B2"/>
<rect x="62" y="123" width="36" height="2" rx="1" fill="#9FA6B2"/>
<rect x="166" y="123" width="36" height="2" rx="1" fill="#9FA6B2"/>
<rect x="114" y="129" width="40" height="2" rx="1" fill="#D2D6DC"/>
<rect x="62" y="129" width="40" height="2" rx="1" fill="#D2D6DC"/>
<rect x="166" y="129" width="40" height="2" rx="1" fill="#D2D6DC"/>
<rect x="114" y="134" width="44" height="2" rx="1" fill="#D2D6DC"/>
<rect x="62" y="134" width="44" height="2" rx="1" fill="#D2D6DC"/>
<rect x="166" y="134" width="44" height="2" rx="1" fill="#D2D6DC"/>
<rect x="166" y="111" width="8" height="8" rx="3" fill="#D2D6DC"/>
<rect x="106" y="26" width="68" height="3" rx="1.5" fill="#6B7280"/>
<rect x="94" y="33" width="92" height="3" rx="1.5" fill="#6B7280"/>
<rect x="110" y="95" width="60" height="3" rx="1.5" fill="#6B7280"/>
<rect x="92" y="41" width="95" height="2" rx="1" fill="#D2D6DC"/>
<rect x="92" y="101" width="95" height="2" rx="1" fill="#D2D6DC"/>
<rect x="98" y="47" width="84" height="2" rx="1" fill="#D2D6DC"/>
<g filter="url(#filter1_dd)">
<rect x="115" y="57" width="24" height="10" rx="3" fill="#4B5563"/>
</g>
<rect x="121" y="61" width="12" height="2" rx="1" fill="#6B7280"/>
<rect x="143" y="57" width="24" height="10" rx="3" fill="#E5E7EB"/>
<rect x="149" y="61" width="12" height="2" rx="1" fill="#9FA6B2"/>
<rect x="62" y="6" width="8" height="8" rx="4" fill="#6B7280"/>
<rect x="202" y="10" width="16" height="2" rx="1" fill="#9FA6B2"/>
<rect x="178" y="10" width="16" height="2" rx="1" fill="#9FA6B2"/>
<rect x="154" y="10" width="16" height="2" rx="1" fill="#9FA6B2"/>
</g>
<defs>
<filter id="filter0_d" x="-3" y="-2" width="286" height="89" filterUnits="userSpaceOnUse" color-interpolation-filters="sRGB">
<feFlood flood-opacity="0" result="BackgroundImageFix"/>
<feColorMatrix in="SourceAlpha" type="matrix" values="0 0 0 0 0 0 0 0 0 0 0 0 0 0 0 0 0 0 127 0"/>
<feOffset dy="1"/>
<feGaussianBlur stdDeviation="1"/>
<feColorMatrix type="matrix" values="0 0 0 0 0 0 0 0 0 0 0 0 0 0 0 0 0 0 0.04 0"/>
<feBlend mode="normal" in2="BackgroundImageFix" result="effect1_dropShadow"/>
<feBlend mode="normal" in="SourceGraphic" in2="effect1_dropShadow" result="shape"/>
</filter>
<filter id="filter1_dd" x="112" y="55" width="30" height="16" filterUnits="userSpaceOnUse" color-interpolation-filters="sRGB">
<feFlood flood-opacity="0" result="BackgroundImageFix"/>
<feColorMatrix in="SourceAlpha" type="matrix" values="0 0 0 0 0 0 0 0 0 0 0 0 0 0 0 0 0 0 127 0"/>
<feOffset dy="1"/>
<feGaussianBlur stdDeviation="1"/>
<feColorMatrix type="matrix" values="0 0 0 0 0 0 0 0 0 0 0 0 0 0 0 0 0 0 0.06 0"/>
<feBlend mode="normal" in2="BackgroundImageFix" result="effect1_dropShadow"/>
<feColorMatrix in="SourceAlpha" type="matrix" values="0 0 0 0 0 0 0 0 0 0 0 0 0 0 0 0 0 0 127 0"/>
<feOffset dy="1"/>
<feGaussianBlur stdDeviation="1.5"/>
<feColorMatrix type="matrix" values="0 0 0 0 0 0 0 0 0 0 0 0 0 0 0 0 0 0 0.1 0"/>
<feBlend mode="normal" in2="effect1_dropShadow" result="effect2_dropShadow"/>
<feBlend mode="normal" in="SourceGraphic" in2="effect2_dropShadow" result="shape"/>
</filter>
</defs>
</svg>
